<svg width="1440" height="1024" viewBox="0 0 1440 1024" fill="none" xmlns="http://www.w3.org/2000/svg">
<path d="M73.2652 928.39C71.9634 927.322 70.3812 926.673 68.7186 926.524C67.056 926.376 65.3877 926.735 63.9246 927.556C62.4616 928.377 61.2696 929.623 60.4992 931.137C59.7289 932.651 59.4149 934.364 59.5969 936.061C59.7789 937.757 60.4488 939.36 61.5218 940.667C62.5948 941.974 64.0228 942.926 65.6251 943.403C67.2275 943.88 68.9322 943.861 70.5238 943.347C72.1154 942.834 73.5223 941.85 74.5667 940.519C75.9671 938.734 76.6168 936.453 76.3727 934.179C76.1286 931.904 75.0108 929.822 73.2652 928.39ZM65.7218 938.004C65.1639 937.546 64.7512 936.93 64.536 936.232C64.3208 935.535 64.3127 934.788 64.5127 934.086C64.7127 933.383 65.1119 932.758 65.6597 932.287C66.2075 931.817 66.8794 931.524 67.5904 931.444C68.3014 931.364 69.0195 931.502 69.654 931.839C70.2885 932.177 70.8109 932.699 71.155 933.34C71.4992 933.981 71.6497 934.713 71.5875 935.441C71.5253 936.17 71.2532 936.863 70.8056 937.433C70.2054 938.198 69.3326 938.688 68.3792 938.795C67.4258 938.902 66.4699 938.617 65.7218 938.004ZM35.0753 908.125C36.1197 906.793 36.7546 905.176 36.8997 903.476C37.0449 901.776 36.6937 900.07 35.8907 898.574C35.0877 897.078 33.8688 895.859 32.3883 895.072C30.9078 894.284 29.2321 893.963 27.5732 894.149C25.9142 894.335 24.3465 895.02 23.0682 896.117C21.7899 897.214 20.8586 898.674 20.3919 900.313C19.9252 901.951 19.9441 903.694 20.4463 905.322C20.9484 906.949 21.9113 908.387 23.2131 909.455C24.9587 910.887 27.1891 911.551 29.4138 911.302C31.6384 911.052 33.6749 909.909 35.0753 908.125ZM26.2304 905.61C25.6725 905.152 25.2599 904.536 25.0447 903.838C24.8294 903.141 24.8213 902.394 25.0213 901.691C25.2214 900.989 25.6205 900.364 26.1683 899.893C26.7162 899.423 27.3881 899.13 28.099 899.05C28.81 898.97 29.5282 899.108 30.1627 899.445C30.7972 899.783 31.3195 900.305 31.6637 900.946C32.0079 901.587 32.1583 902.318 32.0961 903.047C32.0339 903.776 31.7619 904.469 31.3143 905.039C30.7141 905.804 29.8413 906.294 28.8879 906.401C27.9345 906.508 26.9786 906.223 26.2304 905.61ZM43.5484 907.174C44.8502 908.242 46.4324 908.891 48.095 909.039C49.7576 909.188 51.4259 908.829 52.889 908.008C54.352 907.187 55.544 905.94 56.3144 904.427C57.0847 902.913 57.3987 901.2 57.2167 899.503C57.0347 897.807 56.3648 896.204 55.2918 894.897C54.2188 893.59 52.7908 892.638 51.1885 892.161C49.5861 891.683 47.8814 891.703 46.2898 892.216C44.6982 892.73 43.2913 893.714 42.2469 895.045C40.8465 896.83 40.1968 899.111 40.4409 901.385C40.685 903.66 41.8028 905.742 43.5484 907.174ZM51.0918 897.56C51.6497 898.018 52.0624 898.634 52.2776 899.332C52.4928 900.029 52.5009 900.776 52.3009 901.478C52.1009 902.18 51.7017 902.806 51.1539 903.276C50.6061 903.747 49.9342 904.04 49.2232 904.12C48.5122 904.2 47.7941 904.062 47.1596 903.724C46.5251 903.387 46.0027 902.865 45.6586 902.223C45.3144 901.582 45.1639 900.851 45.2261 900.123C45.2883 899.394 45.5604 898.701 46.008 898.13C46.6082 897.365 47.481 896.876 48.4344 896.769C49.3878 896.662 50.3437 896.946 51.0918 897.56ZM60.4733 921.057C61.775 922.125 63.3573 922.774 65.0199 922.923C66.6825 923.071 68.3508 922.712 69.8138 921.891C71.2769 921.07 72.4689 919.824 73.2392 918.31C74.0096 916.796 74.3236 915.083 74.1416 913.386C73.9595 911.69 73.2897 910.087 72.2167 908.78C71.1436 907.473 69.7157 906.521 68.1133 906.044C66.511 905.567 64.8062 905.586 63.2147 906.099C61.6231 906.613 60.2161 907.597 59.1718 908.928C57.7713 910.713 57.1217 912.994 57.3658 915.268C57.6098 917.543 58.7276 919.625 60.4733 921.057ZM68.0167 911.443C68.5746 911.901 68.9872 912.517 69.2025 913.215C69.4177 913.912 69.4258 914.659 69.2258 915.361C69.0258 916.064 68.6266 916.689 68.0788 917.159C67.531 917.63 66.8591 917.923 66.1481 918.003C65.4371 918.083 64.7189 917.945 64.0844 917.608C63.4499 917.27 62.9276 916.748 62.5834 916.107C62.2393 915.465 62.0888 914.734 62.151 914.006C62.2132 913.277 62.4853 912.584 62.9329 912.014C63.533 911.249 64.4058 910.759 65.3593 910.652C66.3127 910.545 67.2686 910.83 68.0167 911.443ZM54.4307 940.143C53.8983 938.82 53.6261 937.404 53.6297 935.974C53.6333 934.544 53.9127 933.128 54.4518 931.809C55.5516 929.097 55.7611 926.094 55.0487 923.251C54.3362 920.407 52.7404 917.877 50.5011 916.04C48.2617 914.203 45.4998 913.159 42.6304 913.064C39.7609 912.97 36.939 913.83 34.5886 915.515C32.2923 917.177 29.4453 917.839 26.6721 917.357C24.0343 916.866 21.3116 917.288 18.9346 918.556C16.5577 919.825 14.6622 921.867 13.548 924.361C12.4337 926.854 12.1643 929.657 12.7824 932.324C13.4004 934.992 14.8707 937.373 16.9605 939.09C18.2109 940.122 19.6527 940.884 21.199 941.33C26.0952 942.797 30.2251 946.184 32.6868 950.753C34.1376 953.572 36.5994 955.707 39.556 956.711C42.5126 957.715 45.7344 957.509 48.546 956.137C51.3576 954.765 53.5406 952.334 54.6373 949.353C55.734 946.371 55.6593 943.071 54.4288 940.145L54.4307 940.143ZM38.7833 950.67C38.0192 950.045 37.3873 949.267 36.9259 948.384C33.8463 942.661 28.6742 938.418 22.5421 936.585C20.7413 936.077 19.2028 934.875 18.249 933.233C17.2951 931.59 16.9999 929.634 17.4252 927.774C17.8504 925.914 18.9631 924.294 20.5302 923.254C22.0974 922.214 23.9973 921.834 25.832 922.195C27.8308 922.549 29.8783 922.496 31.8573 922.041C33.8364 921.585 35.7082 920.735 37.3657 919.54C38.8615 918.466 40.6577 917.917 42.4844 917.977C44.3111 918.037 46.0695 918.701 47.495 919.871C48.9206 921.04 49.9363 922.651 50.3894 924.462C50.8426 926.272 50.7086 928.184 50.0076 929.909C49.2245 931.827 48.8192 933.884 48.8149 935.962C48.8106 938.041 49.2073 940.099 49.9824 942.02C50.6143 943.539 50.7316 945.229 50.3156 946.823C49.8997 948.417 48.9744 949.823 47.6869 950.818C46.3993 951.812 44.8236 952.338 43.2103 952.311C41.5969 952.284 40.0386 951.707 38.7833 950.67Z" fill="#DADADA" fill-opacity="0.55"/>
<path d="M867.754 223.994C866.426 225.028 865.428 226.441 864.886 228.055C864.344 229.669 864.282 231.411 864.709 233.061C865.135 234.711 866.03 236.194 867.281 237.324C868.532 238.453 870.082 239.179 871.736 239.407C873.39 239.636 875.073 239.358 876.572 238.609C878.072 237.859 879.32 236.672 880.16 235.198C880.999 233.723 881.392 232.027 881.289 230.323C881.186 228.62 880.591 226.987 879.58 225.629C878.224 223.809 876.216 222.614 873.998 222.307C871.78 222.001 869.534 222.607 867.754 223.994ZM875.058 233.799C874.489 234.242 873.805 234.503 873.091 234.548C872.377 234.593 871.666 234.421 871.048 234.053C870.43 233.685 869.932 233.138 869.618 232.481C869.304 231.824 869.187 231.086 869.283 230.362C869.379 229.637 869.683 228.958 870.157 228.409C870.63 227.861 871.252 227.469 871.943 227.282C872.635 227.096 873.365 227.123 874.042 227.36C874.718 227.598 875.31 228.035 875.744 228.617C876.325 229.397 876.579 230.381 876.451 231.353C876.322 232.325 875.821 233.205 875.058 233.799ZM839.304 256.997C838.293 255.64 836.91 254.62 835.332 254.065C833.753 253.511 832.05 253.448 830.436 253.884C828.823 254.32 827.372 255.235 826.267 256.514C825.162 257.793 824.453 259.378 824.229 261.069C824.005 262.76 824.277 264.481 825.01 266.014C825.743 267.547 826.904 268.824 828.346 269.682C829.789 270.54 831.448 270.942 833.113 270.837C834.779 270.731 836.377 270.123 837.704 269.089C839.485 267.702 840.653 265.649 840.953 263.382C841.253 261.114 840.66 258.818 839.304 256.997ZM834.783 265.167C834.214 265.61 833.529 265.871 832.815 265.916C832.101 265.961 831.39 265.789 830.772 265.421C830.154 265.053 829.656 264.506 829.342 263.849C829.028 263.192 828.912 262.454 829.007 261.73C829.103 261.005 829.407 260.326 829.881 259.778C830.354 259.229 830.976 258.837 831.668 258.65C832.359 258.464 833.089 258.491 833.766 258.728C834.442 258.966 835.035 259.403 835.468 259.985C836.049 260.765 836.304 261.749 836.175 262.721C836.046 263.693 835.546 264.573 834.783 265.167ZM840.446 248.361C841.774 247.327 842.772 245.913 843.314 244.299C843.856 242.685 843.918 240.943 843.492 239.294C843.065 237.644 842.17 236.16 840.919 235.031C839.668 233.901 838.118 233.176 836.464 232.947C834.81 232.719 833.127 232.996 831.628 233.746C830.128 234.495 828.88 235.682 828.04 237.157C827.201 238.632 826.808 240.328 826.911 242.031C827.014 243.734 827.609 245.368 828.621 246.725C829.977 248.546 831.984 249.74 834.202 250.047C836.42 250.354 838.666 249.747 840.446 248.361ZM833.142 238.556C833.711 238.113 834.396 237.852 835.109 237.807C835.823 237.761 836.534 237.934 837.152 238.302C837.771 238.669 838.268 239.216 838.582 239.874C838.896 240.531 839.013 241.268 838.917 241.993C838.821 242.718 838.517 243.397 838.044 243.945C837.57 244.493 836.948 244.885 836.257 245.072C835.565 245.259 834.835 245.232 834.159 244.994C833.482 244.757 832.89 244.32 832.456 243.738C831.875 242.958 831.621 241.973 831.749 241.002C831.878 240.03 832.379 239.15 833.142 238.556ZM857.707 234.917C859.035 233.883 860.033 232.47 860.575 230.856C861.117 229.242 861.179 227.5 860.753 225.85C860.326 224.2 859.431 222.717 858.18 221.587C856.929 220.458 855.379 219.733 853.725 219.504C852.071 219.275 850.388 219.553 848.889 220.302C847.389 221.052 846.141 222.239 845.301 223.713C844.462 225.188 844.069 226.884 844.172 228.588C844.275 230.291 844.87 231.924 845.882 233.282C847.238 235.102 849.245 236.297 851.463 236.604C853.681 236.91 855.927 236.304 857.707 234.917ZM850.403 225.112C850.972 224.669 851.657 224.408 852.37 224.363C853.084 224.318 853.795 224.49 854.413 224.858C855.032 225.226 855.529 225.773 855.843 226.43C856.157 227.087 856.274 227.825 856.178 228.549C856.082 229.274 855.778 229.953 855.305 230.502C854.831 231.05 854.209 231.442 853.518 231.629C852.826 231.816 852.096 231.788 851.42 231.551C850.743 231.313 850.151 230.876 849.717 230.294C849.136 229.514 848.882 228.53 849.01 227.558C849.139 226.586 849.64 225.707 850.403 225.112ZM874.364 245.518C872.98 245.728 871.57 245.656 870.214 245.307C868.857 244.959 867.581 244.34 866.459 243.486C864.151 241.741 861.351 240.808 858.48 240.829C855.609 240.85 852.823 241.823 850.539 243.601C848.255 245.38 846.597 247.869 845.815 250.693C845.033 253.517 845.169 256.525 846.201 259.264C847.224 261.943 847.166 264.928 846.039 267.563C844.936 270.062 844.68 272.866 845.31 275.53C845.94 278.195 847.422 280.569 849.519 282.276C851.617 283.983 854.212 284.927 856.893 284.957C859.574 284.988 862.188 284.103 864.323 282.444C865.604 281.452 866.675 280.206 867.472 278.779C870.045 274.275 874.257 270.994 879.188 269.654C882.213 268.895 884.834 266.967 886.5 264.276C888.166 261.584 888.748 258.338 888.125 255.217C887.501 252.096 885.72 249.344 883.155 247.536C880.59 245.728 877.44 245.006 874.366 245.521L874.364 245.518ZM880.58 263.585C879.802 264.192 878.911 264.631 877.962 264.876C871.787 266.551 866.512 270.659 863.292 276.301C862.375 277.966 860.863 279.202 859.074 279.752C857.285 280.302 855.357 280.123 853.694 279.252C852.032 278.381 850.763 276.887 850.154 275.081C849.545 273.275 849.643 271.298 850.428 269.564C851.246 267.666 851.69 265.622 851.736 263.549C851.781 261.475 851.426 259.413 850.691 257.479C850.033 255.736 849.946 253.821 850.443 252.023C850.941 250.225 851.996 248.641 853.45 247.508C854.904 246.376 856.678 245.757 858.505 245.744C860.333 245.732 862.115 246.326 863.584 247.438C865.215 248.678 867.07 249.576 869.041 250.082C871.013 250.588 873.062 250.691 875.073 250.385C876.666 250.125 878.299 250.416 879.711 251.214C881.124 252.011 882.235 253.268 882.868 254.786C883.501 256.303 883.62 257.994 883.205 259.588C882.791 261.183 881.867 262.589 880.58 263.585Z" fill="#DADADA" fill-opacity="0.55"/>
<path d="M819.583 -20.8014C818.474 -19.9375 817.64 -18.7566 817.187 -17.4082C816.734 -16.0598 816.683 -14.6043 817.039 -13.2258C817.395 -11.8474 818.143 -10.6079 819.188 -9.66404C820.233 -8.7202 821.528 -8.11444 822.91 -7.92334C824.292 -7.73225 825.698 -7.96441 826.951 -8.59047C828.204 -9.21652 829.247 -10.2084 829.948 -11.4405C830.65 -12.6727 830.978 -14.0899 830.892 -15.5129C830.806 -16.9359 830.309 -18.3008 829.464 -19.435C828.331 -20.9559 826.653 -21.9543 824.8 -22.2105C822.947 -22.4668 821.071 -21.9599 819.583 -20.8014ZM825.686 -12.6093C825.211 -12.239 824.639 -12.0212 824.042 -11.9834C823.446 -11.9456 822.852 -12.0895 822.335 -12.3969C821.819 -12.7043 821.403 -13.1614 821.141 -13.7103C820.878 -14.2593 820.781 -14.8755 820.861 -15.481C820.941 -16.0865 821.195 -16.6542 821.591 -17.1121C821.986 -17.5701 822.506 -17.8978 823.083 -18.0539C823.661 -18.2099 824.271 -18.1873 824.837 -17.9888C825.402 -17.7904 825.897 -17.425 826.259 -16.939C826.744 -16.2871 826.957 -15.4648 826.849 -14.6528C826.742 -13.8409 826.324 -13.1058 825.686 -12.6093ZM795.813 6.77344C794.968 5.63927 793.813 4.78675 792.494 4.32369C791.175 3.86063 789.752 3.80783 788.404 4.17196C787.055 4.53609 785.843 5.3008 784.92 6.36939C783.997 7.43798 783.404 8.76245 783.218 10.1753C783.031 11.5882 783.258 13.026 783.87 14.3069C784.482 15.5878 785.452 16.6543 786.658 17.3716C787.863 18.0888 789.249 18.4245 790.64 18.3363C792.032 18.2481 793.367 17.7399 794.476 16.876C795.964 15.7175 796.94 14.0023 797.191 12.1077C797.441 10.2131 796.946 8.29432 795.813 6.77344ZM792.035 13.5991C791.56 13.9694 790.988 14.1872 790.391 14.225C789.795 14.2628 789.201 14.1189 788.684 13.8115C788.168 13.5042 787.752 13.0471 787.49 12.4981C787.227 11.9491 787.13 11.3329 787.21 10.7274C787.29 10.1219 787.544 9.55429 787.94 9.09632C788.335 8.63835 788.855 8.31062 789.433 8.15456C790.01 7.99851 790.62 8.02114 791.186 8.21959C791.751 8.41804 792.246 8.78341 792.608 9.26948C793.093 9.92129 793.306 10.7436 793.198 11.5556C793.091 12.3676 792.673 13.1027 792.035 13.5991ZM796.767 -0.442666C797.877 -1.30659 798.71 -2.48743 799.163 -3.83587C799.616 -5.18431 799.668 -6.63978 799.312 -8.01823C798.955 -9.39667 798.208 -10.6362 797.162 -11.58C796.117 -12.5239 794.822 -13.1296 793.44 -13.3207C792.058 -13.5118 790.652 -13.2797 789.399 -12.6536C788.147 -12.0275 787.103 -11.0357 786.402 -9.80352C785.701 -8.57133 785.372 -7.15412 785.458 -5.73112C785.545 -4.30813 786.042 -2.94324 786.887 -1.80907C788.02 -0.28819 789.697 0.710189 791.55 0.966439C793.403 1.22269 795.28 0.71582 796.767 -0.442666ZM790.664 -8.63477C791.14 -9.00503 791.712 -9.22283 792.308 -9.26063C792.905 -9.29844 793.499 -9.15455 794.015 -8.84717C794.532 -8.53978 794.947 -8.08271 795.21 -7.53374C795.472 -6.98477 795.57 -6.36857 795.489 -5.76306C795.409 -5.15754 795.155 -4.58991 794.76 -4.13195C794.364 -3.67398 793.845 -3.34625 793.267 -3.19019C792.689 -3.03413 792.079 -3.05676 791.514 -3.25522C790.949 -3.45367 790.454 -3.81904 790.092 -4.30511C789.606 -4.95691 789.393 -5.77925 789.501 -6.59122C789.608 -7.40319 790.027 -8.13828 790.664 -8.63477ZM811.189 -11.6749C812.298 -12.5388 813.132 -13.7196 813.585 -15.0681C814.038 -16.4165 814.09 -17.872 813.733 -19.2504C813.377 -20.6289 812.629 -21.8684 811.584 -22.8122C810.539 -23.756 809.244 -24.3618 807.862 -24.5529C806.48 -24.744 805.074 -24.5118 803.821 -23.8858C802.568 -23.2597 801.525 -22.2679 800.824 -21.0357C800.122 -19.8035 799.794 -18.3863 799.88 -16.9633C799.967 -15.5403 800.464 -14.1754 801.309 -13.0413C802.442 -11.5204 804.119 -10.522 805.972 -10.2657C807.825 -10.0095 809.702 -10.5164 811.189 -11.6749ZM805.086 -19.867C805.561 -20.2372 806.134 -20.455 806.73 -20.4928C807.327 -20.5306 807.921 -20.3867 808.437 -20.0794C808.954 -19.772 809.369 -19.3149 809.632 -18.7659C809.894 -18.217 809.991 -17.6008 809.911 -16.9952C809.831 -16.3897 809.577 -15.8221 809.182 -15.3641C808.786 -14.9062 808.266 -14.5784 807.689 -14.4224C807.111 -14.2663 806.501 -14.289 805.936 -14.4874C805.37 -14.6859 804.875 -15.0512 804.513 -15.5373C804.028 -16.1891 803.815 -17.0114 803.923 -17.8234C804.03 -18.6354 804.449 -19.3705 805.086 -19.867ZM825.106 -2.81734C823.95 -2.64253 822.772 -2.70251 821.638 -2.99383C820.505 -3.28515 819.439 -3.8021 818.501 -4.51511C816.573 -5.97358 814.233 -6.75271 811.835 -6.73542C809.436 -6.71812 807.108 -5.90532 805.2 -4.41918C803.291 -2.93303 801.907 -0.853824 801.253 1.50598C800.6 3.86579 800.713 6.37872 801.576 8.66712C802.43 10.9058 802.381 13.3996 801.44 15.6015C800.519 17.6893 800.304 20.0316 800.831 22.2579C801.358 24.4842 802.595 26.4675 804.348 27.8939C806.101 29.3204 808.268 30.1087 810.509 30.1342C812.749 30.1597 814.933 29.4208 816.716 28.0345C817.787 27.2059 818.682 26.1642 819.347 24.9723C821.498 21.2089 825.017 18.4681 829.136 17.3485C831.664 16.714 833.854 15.1036 835.246 12.8548C836.638 10.606 837.124 7.89357 836.603 5.28609C836.082 2.6786 834.594 0.378597 832.451 -1.13173C830.308 -2.64205 827.676 -3.24541 825.107 -2.81529L825.106 -2.81734ZM830.299 12.2775C829.649 12.7848 828.905 13.1518 828.112 13.3564C822.952 14.7556 818.545 18.188 815.855 22.9022C815.089 24.2926 813.826 25.3258 812.331 25.7854C810.836 26.245 809.226 26.0953 807.836 25.3678C806.447 24.6402 805.387 23.3911 804.878 21.8822C804.369 20.3734 804.451 18.7217 805.107 17.2733C805.791 15.6876 806.162 13.9796 806.2 12.2471C806.237 10.5145 805.941 8.79139 805.327 7.17614C804.777 5.71962 804.704 4.11989 805.12 2.61754C805.535 1.11519 806.417 -0.208555 807.632 -1.15463C808.846 -2.10071 810.329 -2.61796 811.856 -2.62861C813.383 -2.63926 814.872 -2.14272 816.099 -1.21368C817.462 -0.177801 819.011 0.572944 820.659 0.995547C822.306 1.41815 824.018 1.5043 825.698 1.24907C827.029 1.03127 828.393 1.27485 829.574 1.94107C830.754 2.60731 831.682 3.65792 832.211 4.9258C832.74 6.19368 832.839 7.60601 832.493 8.93815C832.147 10.2703 831.374 11.4457 830.299 12.2775Z" fill="#DADADA" fill-opacity="0.25"/>
<path d="M68.6881 70.5591C67.6574 69.5299 66.3513 68.8364 64.9351 68.5662C63.5188 68.296 62.056 68.4613 60.7316 69.0411C59.4073 69.621 58.2808 70.5894 57.4947 71.8238C56.7086 73.0582 56.2981 74.5033 56.3153 75.9762C56.3324 77.4492 56.7763 78.8838 57.5909 80.0988C58.4055 81.3138 59.5541 82.2545 60.8916 82.802C62.2291 83.3495 63.6953 83.4792 65.1049 83.1747C66.5144 82.8701 67.804 82.1451 68.8106 81.0912C70.1603 79.6779 70.9057 77.7743 70.8827 75.7992C70.8597 73.824 70.0703 71.9391 68.6881 70.5591ZM61.4179 78.1714C60.9762 77.7303 60.6723 77.1653 60.5446 76.5476C60.417 75.9299 60.4713 75.2874 60.7008 74.7013C60.9303 74.1153 61.3246 73.6119 61.8339 73.255C62.3431 72.898 62.9445 72.7035 63.5619 72.696C64.1793 72.6885 64.785 72.8683 65.3024 73.2128C65.8198 73.5573 66.2257 74.0509 66.4688 74.6312C66.7118 75.2116 66.7811 75.8526 66.6678 76.4732C66.5546 77.0938 66.2639 77.6661 65.8325 78.1178C65.2541 78.7234 64.464 79.0694 63.6361 79.0794C62.8082 79.0895 62.0103 78.7629 61.4179 78.1714ZM37.5411 49.8704C38.5476 48.8165 39.2259 47.4811 39.4902 46.033C39.7544 44.585 39.5928 43.0893 39.0257 41.7352C38.4586 40.3811 37.5115 39.2293 36.3041 38.4255C35.0968 37.6218 33.6835 37.2021 32.2429 37.2196C30.8024 37.2371 29.3992 37.691 28.2109 38.5239C27.0226 39.3568 26.1026 40.5312 25.5671 41.8987C25.0316 43.2663 24.9048 44.7654 25.2026 46.2066C25.5005 47.6479 26.2096 48.9664 27.2404 49.9956C28.6226 51.3756 30.4843 52.1377 32.4161 52.1143C34.3478 52.0908 36.1914 51.2836 37.5411 49.8704ZM30.1485 46.9506C29.7067 46.5096 29.4028 45.9445 29.2751 45.3268C29.1475 44.7091 29.2019 44.0666 29.4313 43.4806C29.6608 42.8945 30.0551 42.3911 30.5644 42.0342C31.0737 41.6772 31.675 41.4827 32.2924 41.4752C32.9098 41.4677 33.5155 41.6476 34.0329 41.992C34.5503 42.3365 34.9562 42.8301 35.1993 43.4105C35.4423 43.9908 35.5116 44.6318 35.3984 45.2524C35.2851 45.873 34.9944 46.4453 34.563 46.897C33.9846 47.5027 33.1945 47.8486 32.3666 47.8586C31.5387 47.8687 30.7408 47.5421 30.1485 46.9506ZM44.8988 49.781C45.9295 50.8101 47.2356 51.5036 48.6518 51.7738C50.0681 52.044 51.5309 51.8787 52.8552 51.2989C54.1796 50.719 55.3061 49.7507 56.0922 48.5162C56.8783 47.2818 57.2887 45.8368 57.2716 44.3638C57.2545 42.8909 56.8106 41.4562 55.996 40.2412C55.1814 39.0262 54.0327 38.0855 52.6953 37.538C51.3578 36.9905 49.8916 36.8608 48.482 37.1654C47.0724 37.4699 45.7829 38.195 44.7763 39.2489C43.4266 40.6621 42.6812 42.5657 42.7042 44.5408C42.7271 46.516 43.5166 48.4009 44.8988 49.781ZM52.169 42.1686C52.6107 42.6097 52.9146 43.1748 53.0423 43.7925C53.1699 44.4101 53.1156 45.0526 52.8861 45.6387C52.6566 46.2248 52.2623 46.7281 51.753 47.0851C51.2437 47.442 50.6424 47.6365 50.025 47.644C49.4076 47.6515 48.8019 47.4717 48.2845 47.1272C47.7671 46.7827 47.3612 46.2891 47.1181 45.7088C46.8751 45.1285 46.8058 44.4875 46.919 43.8669C47.0323 43.2463 47.323 42.674 47.7544 42.2223C48.3328 41.6166 49.1229 41.2707 49.9508 41.2606C50.7787 41.2506 51.5766 41.5772 52.169 42.1686ZM58.2999 63.1613C59.3307 64.1905 60.6368 64.884 62.053 65.1542C63.4693 65.4243 64.9321 65.2591 66.2564 64.6792C67.5808 64.0994 68.7073 63.131 69.4934 61.8966C70.2795 60.6621 70.6899 59.2171 70.6728 57.7442C70.6557 56.2712 70.2118 54.8365 69.3972 53.6216C68.5826 52.4066 67.4339 51.4659 66.0965 50.9184C64.759 50.3709 63.2928 50.2412 61.8832 50.5457C60.4736 50.8502 59.1841 51.5753 58.1775 52.6292C56.8278 54.0424 56.0824 55.946 56.1054 57.9212C56.1283 59.8963 56.9178 61.7813 58.2999 63.1613ZM65.5702 55.549C66.0119 55.99 66.3158 56.5551 66.4435 57.1728C66.5711 57.7905 66.5168 58.433 66.2873 59.019C66.0578 59.6051 65.6635 60.1085 65.1542 60.4654C64.6449 60.8223 64.0436 61.0169 63.4262 61.0244C62.8088 61.0319 62.2031 60.852 61.6857 60.5076C61.1683 60.1631 60.7624 59.6695 60.5193 59.0891C60.2763 58.5088 60.207 57.8678 60.3202 57.2472C60.4335 56.6266 60.7242 56.0543 61.1556 55.6026C61.734 54.9969 62.5241 54.651 63.352 54.641C64.1799 54.6309 64.9778 54.9575 65.5702 55.549ZM51.5416 79.0401C51.1927 77.8583 51.0752 76.6178 51.1957 75.3895C51.3162 74.1612 51.6724 72.9692 52.2439 71.8819C53.4114 69.6467 53.8379 67.0845 53.4593 64.5802C53.0807 62.076 51.9174 59.7651 50.1443 57.9947C48.3712 56.2243 46.084 55.0902 43.6264 54.7627C41.1689 54.4352 38.6738 54.932 36.5161 56.1786C34.4069 57.4088 31.9065 57.7335 29.5635 57.0813C27.3375 56.4329 24.9636 56.5618 22.8174 57.4476C20.6711 58.3334 18.8749 59.9256 17.7129 61.9722C16.5509 64.0189 16.0894 66.4032 16.4014 68.7481C16.7133 71.0931 17.781 73.2647 19.4355 74.9196C20.4251 75.9133 21.6013 76.6918 22.8931 77.2081C26.9793 78.8883 30.2493 82.1532 31.9892 86.29C33.0043 88.8363 34.944 90.8819 37.4018 91.998C39.8595 93.1141 42.6444 93.2139 45.1726 92.2766C47.7008 91.3393 49.776 89.4377 50.963 86.9704C52.15 84.5031 52.3567 81.6617 51.5398 79.042L51.5416 79.0401ZM37.2338 86.7417C36.6288 86.1386 36.1497 85.4162 35.8257 84.6182C33.6498 79.4367 29.5545 75.3479 24.4366 73.2468C22.9311 72.6552 21.708 71.491 21.0234 69.9979C20.3387 68.5049 20.2457 66.7989 20.7638 65.2373C21.2818 63.6756 22.3708 62.3796 23.8026 61.6205C25.2343 60.8615 26.8978 60.6984 28.4446 61.1654C30.1328 61.6411 31.8961 61.7719 33.6338 61.5504C35.3715 61.3288 37.0495 60.7592 38.5717 59.8742C39.9449 59.08 41.5332 58.7631 43.0977 58.9712C44.6622 59.1794 46.1183 59.9012 47.2471 61.0282C48.3759 62.1552 49.1163 63.6265 49.3569 65.2207C49.5976 66.815 49.3255 68.446 48.5817 69.8686C47.7514 71.449 47.2343 73.1814 47.06 74.9665C46.8856 76.7517 47.0575 78.5544 47.5657 80.2715C47.9839 81.63 47.9459 83.0924 47.4577 84.4262C46.9695 85.7601 46.059 86.8886 44.8712 87.6325C43.6834 88.3763 42.2865 88.6927 40.9026 88.5313C39.5187 88.3699 38.2273 87.74 37.2338 86.7417Z" fill="#DADADA" fill-opacity="0.55"/>
<path d="M1349.55 953.078C1348.18 954.05 1347.12 955.417 1346.51 957.004C1345.9 958.592 1345.76 960.329 1346.11 961.997C1346.46 963.664 1347.29 965.187 1348.49 966.373C1349.69 967.559 1351.21 968.354 1352.85 968.658C1354.5 968.963 1356.19 968.762 1357.72 968.082C1359.25 967.402 1360.55 966.274 1361.45 964.839C1362.36 963.404 1362.82 961.728 1362.79 960.021C1362.77 958.315 1362.24 956.656 1361.29 955.254C1360.02 953.373 1358.06 952.087 1355.86 951.679C1353.66 951.271 1351.39 951.775 1349.55 953.078ZM1356.42 963.208C1355.83 963.624 1355.13 963.854 1354.42 963.866C1353.7 963.879 1353 963.674 1352.4 963.278C1351.8 962.882 1351.33 962.313 1351.04 961.642C1350.76 960.971 1350.67 960.229 1350.8 959.51C1350.93 958.79 1351.26 958.125 1351.76 957.599C1352.25 957.074 1352.89 956.71 1353.59 956.555C1354.29 956.4 1355.02 956.461 1355.68 956.729C1356.35 956.997 1356.92 957.461 1357.33 958.062C1357.88 958.868 1358.09 959.863 1357.92 960.828C1357.74 961.793 1357.21 962.649 1356.42 963.208ZM1319.68 984.746C1318.73 983.343 1317.4 982.261 1315.84 981.635C1314.29 981.009 1312.59 980.868 1310.96 981.229C1309.33 981.591 1307.84 982.439 1306.68 983.666C1305.52 984.893 1304.74 986.444 1304.44 988.123C1304.15 989.802 1304.34 991.534 1305.01 993.099C1305.67 994.664 1306.78 995.992 1308.18 996.916C1309.58 997.839 1311.22 998.317 1312.89 998.288C1314.56 998.258 1316.18 997.724 1317.56 996.752C1319.39 995.448 1320.65 993.451 1321.05 991.199C1321.45 988.948 1320.96 986.626 1319.68 984.746ZM1314.81 992.7C1314.22 993.117 1313.52 993.346 1312.81 993.358C1312.09 993.371 1311.39 993.166 1310.79 992.77C1310.19 992.374 1309.72 991.805 1309.43 991.134C1309.15 990.464 1309.06 989.721 1309.19 989.002C1309.32 988.282 1309.65 987.618 1310.15 987.092C1310.64 986.566 1311.28 986.202 1311.98 986.047C1312.68 985.892 1313.41 985.953 1314.07 986.221C1314.74 986.49 1315.31 986.953 1315.72 987.555C1316.27 988.36 1316.48 989.355 1316.31 990.32C1316.14 991.285 1315.6 992.141 1314.81 992.7ZM1321.2 976.17C1322.57 975.198 1323.63 973.832 1324.25 972.244C1324.86 970.657 1325 968.919 1324.64 967.252C1324.29 965.584 1323.46 964.061 1322.26 962.875C1321.06 961.689 1319.54 960.894 1317.9 960.59C1316.26 960.286 1314.56 960.486 1313.03 961.166C1311.5 961.846 1310.2 962.975 1309.3 964.409C1308.4 965.844 1307.93 967.521 1307.96 969.227C1307.99 970.933 1308.51 972.592 1309.46 973.995C1310.74 975.875 1312.69 977.161 1314.89 977.569C1317.09 977.977 1319.36 977.474 1321.2 976.17ZM1314.33 966.04C1314.92 965.624 1315.62 965.395 1316.33 965.382C1317.05 965.37 1317.75 965.574 1318.35 965.97C1318.95 966.366 1319.43 966.935 1319.71 967.606C1320 968.277 1320.08 969.019 1319.95 969.739C1319.83 970.458 1319.49 971.123 1319 971.649C1318.5 972.175 1317.86 972.538 1317.16 972.693C1316.46 972.848 1315.73 972.787 1315.07 972.519C1314.4 972.251 1313.83 971.787 1313.42 971.186C1312.88 970.38 1312.67 969.385 1312.84 968.42C1313.01 967.455 1313.55 966.599 1314.33 966.04ZM1339.04 963.53C1340.41 962.558 1341.47 961.192 1342.08 959.605C1342.69 958.017 1342.83 956.28 1342.47 954.612C1342.12 952.944 1341.29 951.421 1340.09 950.236C1338.89 949.05 1337.37 948.254 1335.73 947.95C1334.09 947.646 1332.4 947.847 1330.87 948.526C1329.33 949.206 1328.04 950.335 1327.13 951.77C1326.23 953.205 1325.76 954.881 1325.79 956.587C1325.82 958.294 1326.34 959.953 1327.29 961.355C1328.57 963.236 1330.52 964.521 1332.72 964.929C1334.93 965.337 1337.2 964.834 1339.04 963.53ZM1332.17 953.401C1332.76 952.984 1333.45 952.755 1334.17 952.743C1334.88 952.73 1335.58 952.935 1336.19 953.331C1336.79 953.726 1337.26 954.296 1337.54 954.967C1337.83 955.637 1337.91 956.379 1337.79 957.099C1337.66 957.819 1337.33 958.483 1336.83 959.009C1336.33 959.535 1335.69 959.899 1334.99 960.054C1334.29 960.208 1333.57 960.148 1332.9 959.88C1332.24 959.611 1331.66 959.147 1331.26 958.546C1330.71 957.74 1330.5 956.746 1330.67 955.781C1330.84 954.816 1331.38 953.96 1332.17 953.401ZM1355.21 974.884C1353.82 975.03 1352.41 974.893 1351.07 974.483C1349.73 974.072 1348.49 973.396 1347.4 972.492C1345.17 970.642 1342.42 969.583 1339.55 969.472C1336.68 969.361 1333.85 970.205 1331.49 971.878C1329.13 973.55 1327.37 975.96 1326.46 978.746C1325.56 981.532 1325.56 984.542 1326.47 987.326C1327.38 990.049 1327.19 993.028 1325.95 995.61C1324.74 998.055 1324.36 1000.84 1324.87 1003.54C1325.38 1006.23 1326.76 1008.67 1328.78 1010.47C1330.8 1012.27 1333.35 1013.33 1336.03 1013.48C1338.71 1013.64 1341.36 1012.87 1343.56 1011.31C1344.89 1010.38 1346.01 1009.18 1346.87 1007.8C1349.64 1003.41 1353.99 1000.33 1358.97 999.216C1362.03 998.596 1364.73 996.791 1366.51 994.178C1368.29 991.566 1369.02 988.349 1368.53 985.203C1368.05 982.057 1366.39 979.225 1363.9 977.302C1361.42 975.379 1358.31 974.513 1355.21 974.886L1355.21 974.884ZM1360.63 993.217C1359.82 993.788 1358.92 994.186 1357.96 994.387C1351.71 995.777 1346.27 999.64 1342.8 1005.13C1341.81 1006.75 1340.25 1007.92 1338.44 1008.38C1336.63 1008.85 1334.71 1008.58 1333.08 1007.64C1331.46 1006.69 1330.26 1005.14 1329.73 1003.31C1329.2 1001.48 1329.39 999.505 1330.24 997.809C1331.15 995.951 1331.68 993.929 1331.82 991.86C1331.95 989.79 1331.69 987.714 1331.04 985.749C1330.46 983.977 1330.45 982.06 1331.03 980.287C1331.6 978.513 1332.73 976.979 1334.23 975.914C1335.73 974.85 1337.53 974.312 1339.36 974.383C1341.18 974.454 1342.94 975.13 1344.36 976.308C1345.93 977.621 1347.75 978.604 1349.69 979.199C1351.64 979.795 1353.68 979.992 1355.71 979.778C1357.31 979.591 1358.93 979.957 1360.3 980.818C1361.68 981.68 1362.73 982.987 1363.3 984.532C1363.87 986.077 1363.91 987.771 1363.43 989.344C1362.94 990.918 1361.96 992.281 1360.63 993.217Z" fill="#DADADA" fill-opacity="0.55"/>
<path d="M1437.91 83.0784C1436.54 84.0423 1435.47 85.4021 1434.85 86.9858C1434.23 88.5696 1434.08 90.3062 1434.42 91.9759C1434.77 93.6457 1435.59 95.1737 1436.78 96.3667C1437.97 97.5597 1439.49 98.3641 1441.13 98.6782C1442.77 98.9923 1444.46 98.802 1446 98.1313C1447.53 97.4606 1448.84 96.3397 1449.75 94.9103C1450.66 93.4809 1451.14 91.8073 1451.12 90.101C1451.1 88.3947 1450.58 86.7324 1449.64 85.3243C1448.38 83.4361 1446.43 82.1387 1444.23 81.7175C1442.03 81.2963 1439.76 81.7858 1437.91 83.0784ZM1444.72 93.249C1444.13 93.6621 1443.43 93.887 1442.72 93.8952C1442 93.9034 1441.3 93.6946 1440.7 93.2952C1440.1 92.8957 1439.63 92.3236 1439.35 91.6511C1439.07 90.9787 1438.99 90.2361 1439.12 89.5172C1439.26 88.7984 1439.59 88.1356 1440.09 87.6127C1440.59 87.0898 1441.23 86.7303 1441.93 86.5796C1442.63 86.4289 1443.36 86.4937 1444.03 86.766C1444.69 87.0383 1445.26 87.5057 1445.66 88.1092C1446.21 88.9184 1446.41 89.9145 1446.23 90.8784C1446.06 91.8424 1445.51 92.6951 1444.72 93.249ZM1407.86 114.566C1406.92 113.158 1405.59 112.067 1404.04 111.432C1402.49 110.796 1400.79 110.645 1399.16 110.997C1397.53 111.348 1396.03 112.187 1394.87 113.407C1393.7 114.628 1392.91 116.174 1392.61 117.851C1392.3 119.529 1392.49 121.261 1393.14 122.83C1393.8 124.399 1394.89 125.734 1396.29 126.666C1397.69 127.598 1399.33 128.086 1401 128.067C1402.66 128.047 1404.29 127.523 1405.67 126.559C1407.51 125.266 1408.78 123.277 1409.19 121.027C1409.61 118.778 1409.13 116.454 1407.86 114.566ZM1402.94 122.491C1402.35 122.904 1401.66 123.129 1400.94 123.137C1400.23 123.145 1399.52 122.936 1398.93 122.537C1398.33 122.137 1397.86 121.565 1397.58 120.893C1397.29 120.22 1397.21 119.478 1397.35 118.759C1397.48 118.04 1397.81 117.377 1398.32 116.854C1398.82 116.331 1399.46 115.972 1400.16 115.821C1400.86 115.67 1401.58 115.735 1402.25 116.008C1402.91 116.28 1403.48 116.747 1403.88 117.351C1404.43 118.16 1404.63 119.156 1404.46 120.12C1404.28 121.084 1403.73 121.937 1402.94 122.491ZM1409.43 105.999C1410.81 105.035 1411.88 103.676 1412.5 102.092C1413.12 100.508 1413.27 98.7715 1412.92 97.1017C1412.58 95.4319 1411.76 93.9039 1410.57 92.7109C1409.37 91.5179 1407.86 90.7135 1406.22 90.3995C1404.58 90.0854 1402.88 90.2757 1401.35 90.9464C1399.82 91.617 1398.51 92.7379 1397.6 94.1673C1396.69 95.5967 1396.21 97.2704 1396.23 98.9767C1396.25 100.683 1396.76 102.345 1397.7 103.753C1398.97 105.642 1400.91 106.939 1403.11 107.36C1405.31 107.781 1407.59 107.292 1409.43 105.999ZM1402.62 95.8286C1403.21 95.4155 1403.91 95.1906 1404.63 95.1824C1405.34 95.1742 1406.04 95.383 1406.64 95.7825C1407.24 96.1819 1407.71 96.7541 1407.99 97.4265C1408.27 98.099 1408.35 98.8416 1408.22 99.5604C1408.09 100.279 1407.75 100.942 1407.25 101.465C1406.75 101.988 1406.11 102.347 1405.41 102.498C1404.71 102.649 1403.98 102.584 1403.32 102.312C1402.66 102.039 1402.09 101.572 1401.68 100.968C1401.14 100.159 1400.94 99.1631 1401.11 98.1992C1401.29 97.2353 1401.83 96.3826 1402.62 95.8286ZM1427.34 93.4672C1428.71 92.5033 1429.78 91.1435 1430.4 89.5598C1431.02 87.976 1431.17 86.2394 1430.83 84.5696C1430.48 82.8999 1429.66 81.3719 1428.47 80.1789C1427.28 78.9859 1425.76 78.1815 1424.12 77.8674C1422.48 77.5533 1420.79 77.7436 1419.25 78.4143C1417.72 79.085 1416.41 80.2059 1415.5 81.6353C1414.59 83.0646 1414.11 84.7383 1414.13 86.4446C1414.15 88.1509 1414.67 89.8132 1415.61 91.2213C1416.87 93.1095 1418.82 94.4069 1421.02 94.8281C1423.22 95.2493 1425.49 94.7598 1427.34 93.4672ZM1420.53 83.2965C1421.12 82.8834 1421.82 82.6586 1422.53 82.6504C1423.25 82.6422 1423.95 82.851 1424.55 83.2504C1425.15 83.6499 1425.62 84.222 1425.9 84.8945C1426.18 85.5669 1426.26 86.3095 1426.13 87.0284C1425.99 87.7472 1425.66 88.4099 1425.16 88.9328C1424.66 89.4557 1424.02 89.8153 1423.32 89.966C1422.62 90.1167 1421.89 90.0518 1421.22 89.7796C1420.56 89.5073 1419.99 89.0399 1419.59 88.4364C1419.05 87.6272 1418.84 86.6311 1419.02 85.6671C1419.19 84.7032 1419.74 83.8505 1420.53 83.2965ZM1443.45 104.918C1442.06 105.055 1440.65 104.91 1439.31 104.492C1437.98 104.073 1436.73 103.389 1435.65 102.479C1433.43 100.616 1430.68 99.5396 1427.82 99.4115C1424.95 99.2835 1422.12 100.111 1419.75 101.769C1417.38 103.427 1415.6 105.826 1414.68 108.607C1413.76 111.387 1413.74 114.398 1414.64 117.187C1415.53 119.916 1415.32 122.893 1414.07 125.467C1412.84 127.906 1412.45 130.692 1412.94 133.386C1413.44 136.08 1414.8 138.527 1416.81 140.341C1418.82 142.155 1421.37 143.231 1424.04 143.401C1426.72 143.57 1429.38 142.822 1431.59 141.276C1432.92 140.352 1434.05 139.162 1434.92 137.779C1437.71 133.413 1442.08 130.355 1447.07 129.272C1450.13 128.671 1452.84 126.881 1454.64 124.28C1456.44 121.678 1457.18 118.466 1456.71 115.317C1456.24 112.168 1454.6 109.326 1452.13 107.388C1449.66 105.45 1446.55 104.565 1443.45 104.92L1443.45 104.918ZM1448.76 123.283C1447.95 123.849 1447.04 124.242 1446.08 124.437C1439.83 125.79 1434.36 129.619 1430.87 135.088C1429.87 136.702 1428.3 137.859 1426.48 138.315C1424.67 138.772 1422.75 138.493 1421.13 137.538C1419.52 136.582 1418.32 135.023 1417.8 133.188C1417.29 131.353 1417.48 129.383 1418.35 127.693C1419.26 125.84 1419.81 123.821 1419.96 121.753C1420.1 119.684 1419.85 117.606 1419.21 115.637C1418.64 113.862 1418.65 111.945 1419.24 110.175C1419.82 108.405 1420.95 106.877 1422.46 105.822C1423.97 104.766 1425.77 104.24 1427.6 104.322C1429.42 104.404 1431.17 105.09 1432.59 106.276C1434.15 107.599 1435.96 108.592 1437.91 109.2C1439.85 109.807 1441.89 110.016 1443.91 109.815C1445.52 109.637 1447.13 110.013 1448.51 110.883C1449.88 111.752 1450.92 113.066 1451.48 114.614C1452.04 116.162 1452.07 117.857 1451.58 119.427C1451.09 120.998 1450.09 122.355 1448.76 123.283Z" fill="#DADADA" fill-opacity="0.25"/>
</svg>
